# xmcd
#
# Track frame offsets: 
#        150
#        11212
#        25962
#        39597
#        52932
#        76965
#        94277
#        112300
#        129909
#        160111
#        181373
#        193424
#        212488
#        228041
#        243613
#        271226
#        286681
#        313701
#        329759
#        339398
#
# Disc length: 4763 seconds
#
# Revision: 0
# Processed by: cddbd v1.5.2PL0 Copyright (c) Steve Scherf et al.
# Submitted via: ExactAudioCopy v0.99pb4
#
DISCID=1d129914
DTITLE=Ella Fitzgerald - The Irving Berlin Duke Ellington Songbooks
DYEAR=1957
DGENRE=Blues
TTITLE0=It's A Lovely Day Today
TTITLE1=Change Partners
TTITLE2=No Strings (I'm Fancy Free)
TTITLE3=I've Got My Love To Keep Me Warm
TTITLE4=Rockin' In Rhythm
TTITLE5=Drop Me Off In Harlem
TTITLE6=Day Dream
TTITLE7=Caravan
TTITLE8=Take The 'A' Train
TTITLE9=I Ain't Got Nothing But The Blues
TTITLE10=Clementine
TTITLE11=I Don't Know About You
TTITLE12=I'm Beginning To See The Light
TTITLE13=Lost In Meditation
TTITLE14=Perdido
TTITLE15=Cotton Tail
TTITLE16=Do Nothin' Till You Hear From Me
TTITLE17=Just A-Sittin' And A'Rockin'
TTITLE18=Solitude
TTITLE19=Rocks In My Bed
EXTD=
EXTT0=
EXTT1=
EXTT2=
EXTT3=
EXTT4=
EXTT5=
EXTT6=
EXTT7=
EXTT8=
EXTT9=
EXTT10=
EXTT11=
EXTT12=
EXTT13=
EXTT14=
EXTT15=
EXTT16=
EXTT17=
EXTT18=
EXTT19=
PLAYORDER=
